<svg xmlns="http://www.w3.org/2000/svg" viewBox="0 0 1100 450" width="1100" height="450" font-family="Segoe UI,Helvetica,Arial,sans-serif">
<defs><marker id="ah" viewBox="0 0 10 10" refX="9" refY="5" markerWidth="7" markerHeight="7" orient="auto-start-reverse"><path d="M0,0 L10,5 L0,10 z" fill="#94a3b8"/></marker><filter id="sh" x="-20%" y="-20%" width="140%" height="160%"><feDropShadow dx="0" dy="2" stdDeviation="3" flood-color="#0f172a" flood-opacity="0.08"/></filter></defs>
<rect x="0" y="0" width="1100" height="450" rx="18" fill="#ffffff" stroke="#e2e8f0" stroke-width="1.5"/>
<rect x="0" y="0" width="1100" height="78" rx="18" fill="#f8fafc"/>
<rect x="0" y="60" width="1100" height="18" fill="#f8fafc"/>
<rect x="0" y="76" width="1100" height="2" fill="#e2e8f0"/>
<rect x="34" y="26" width="6" height="26" rx="3" fill="#6366f1"/>
<text x="54" y="40" font-size="22" font-weight="800" fill="#0f172a">RAG Knowledge Assistant</text>
<text x="54" y="60" font-size="13" fill="#64748b">How it works — end-to-end flow</text>
<rect x="990" y="28" width="76" height="26" rx="13" fill="#6366f1" opacity="0.12"/>
<text x="1028.0" y="45" font-size="12.5" font-weight="700" fill="#6366f1" text-anchor="middle">AI / LLM</text>
<rect x="34" y="106" width="210" height="98" rx="13" fill="#ffffff" stroke="#e2e8f0" stroke-width="1.5" filter="url(#sh)"/>
<rect x="34" y="106" width="6" height="98" rx="3" fill="#2563eb"/>
<text x="56" y="140" font-family="Segoe UI,Helvetica,Arial,sans-serif" font-size="16" font-weight="700" fill="#0f172a">Documents</text>
<text x="56" y="162" font-family="Segoe UI,Helvetica,Arial,sans-serif" font-size="12.5" fill="#64748b">PDF / text</text>
<text x="56" y="180" font-family="Segoe UI,Helvetica,Arial,sans-serif" font-size="12.5" fill="#64748b">corpus upload</text>
<rect x="308" y="106" width="210" height="98" rx="13" fill="#ffffff" stroke="#e2e8f0" stroke-width="1.5" filter="url(#sh)"/>
<rect x="308" y="106" width="6" height="98" rx="3" fill="#6366f1"/>
<text x="330" y="140" font-family="Segoe UI,Helvetica,Arial,sans-serif" font-size="16" font-weight="700" fill="#0f172a">Ingest &amp; Chunk</text>
<text x="330" y="162" font-family="Segoe UI,Helvetica,Arial,sans-serif" font-size="12.5" fill="#64748b">split into</text>
<text x="330" y="180" font-family="Segoe UI,Helvetica,Arial,sans-serif" font-size="12.5" fill="#64748b">overlapping passages</text>
<rect x="582" y="106" width="210" height="98" rx="13" fill="#ffffff" stroke="#e2e8f0" stroke-width="1.5" filter="url(#sh)"/>
<rect x="582" y="106" width="6" height="98" rx="3" fill="#6366f1"/>
<text x="604" y="140" font-family="Segoe UI,Helvetica,Arial,sans-serif" font-size="16" font-weight="700" fill="#0f172a">Embed</text>
<text x="604" y="162" font-family="Segoe UI,Helvetica,Arial,sans-serif" font-size="12.5" fill="#64748b">sentence-</text>
<text x="604" y="180" font-family="Segoe UI,Helvetica,Arial,sans-serif" font-size="12.5" fill="#64748b">transformers</text>
<rect x="856" y="106" width="210" height="98" rx="13" fill="#ffffff" stroke="#e2e8f0" stroke-width="1.5" filter="url(#sh)"/>
<rect x="856" y="106" width="6" height="98" rx="3" fill="#6366f1"/>
<text x="878" y="140" font-family="Segoe UI,Helvetica,Arial,sans-serif" font-size="16" font-weight="700" fill="#0f172a">Vector Store</text>
<text x="878" y="162" font-family="Segoe UI,Helvetica,Arial,sans-serif" font-size="12.5" fill="#64748b">NumPy index,</text>
<text x="878" y="180" font-family="Segoe UI,Helvetica,Arial,sans-serif" font-size="12.5" fill="#64748b">cosine search</text>
<line x1="250" y1="155.0" x2="302" y2="155.0" stroke="#94a3b8" stroke-width="2.2" marker-end="url(#ah)"/>
<line x1="524" y1="155.0" x2="576" y2="155.0" stroke="#94a3b8" stroke-width="2.2" marker-end="url(#ah)"/>
<line x1="798" y1="155.0" x2="850" y2="155.0" stroke="#94a3b8" stroke-width="2.2" marker-end="url(#ah)"/>
<line x1="961.0" y1="210" x2="961.0" y2="276" stroke="#94a3b8" stroke-width="2.2" marker-end="url(#ah)"/>
<rect x="856" y="282" width="210" height="98" rx="13" fill="#ffffff" stroke="#e2e8f0" stroke-width="1.5" filter="url(#sh)"/>
<rect x="856" y="282" width="6" height="98" rx="3" fill="#6366f1"/>
<text x="878" y="316" font-family="Segoe UI,Helvetica,Arial,sans-serif" font-size="16" font-weight="700" fill="#0f172a">Retrieve + MMR</text>
<text x="878" y="338" font-family="Segoe UI,Helvetica,Arial,sans-serif" font-size="12.5" fill="#64748b">top-k, diversified</text>
<text x="878" y="356" font-family="Segoe UI,Helvetica,Arial,sans-serif" font-size="12.5" fill="#64748b">relevant passages</text>
<rect x="582" y="282" width="210" height="98" rx="13" fill="#ffffff" stroke="#e2e8f0" stroke-width="1.5" filter="url(#sh)"/>
<rect x="582" y="282" width="6" height="98" rx="3" fill="#7c3aed"/>
<text x="604" y="316" font-family="Segoe UI,Helvetica,Arial,sans-serif" font-size="16" font-weight="700" fill="#0f172a">LLM Generate</text>
<text x="604" y="338" font-family="Segoe UI,Helvetica,Arial,sans-serif" font-size="12.5" fill="#64748b">Gemini, grounded</text>
<text x="604" y="356" font-family="Segoe UI,Helvetica,Arial,sans-serif" font-size="12.5" fill="#64748b">+ guardrails</text>
<rect x="308" y="282" width="210" height="98" rx="13" fill="#ffffff" stroke="#e2e8f0" stroke-width="1.5" filter="url(#sh)"/>
<rect x="308" y="282" width="6" height="98" rx="3" fill="#16a34a"/>
<text x="330" y="316" font-family="Segoe UI,Helvetica,Arial,sans-serif" font-size="16" font-weight="700" fill="#0f172a">Answer + Citations</text>
<text x="330" y="338" font-family="Segoe UI,Helvetica,Arial,sans-serif" font-size="12.5" fill="#64748b">auditable reply,</text>
<text x="330" y="356" font-family="Segoe UI,Helvetica,Arial,sans-serif" font-size="12.5" fill="#64748b">source links</text>
<line x1="850" y1="331.0" x2="798" y2="331.0" stroke="#94a3b8" stroke-width="2.2" marker-end="url(#ah)"/>
<line x1="576" y1="331.0" x2="524" y2="331.0" stroke="#94a3b8" stroke-width="2.2" marker-end="url(#ah)"/>
<text x="34" y="408" font-size="12" font-weight="700" fill="#64748b">STACK</text>
<rect x="90" y="393" width="66" height="22" rx="11" fill="#6366f1" opacity="0.10"/>
<text x="123" y="408" font-size="11.5" font-weight="600" fill="#6366f1" text-anchor="middle">FastAPI</text>
<rect x="166.4" y="393" width="167" height="22" rx="11" fill="#6366f1" opacity="0.10"/>
<text x="250" y="408" font-size="11.5" font-weight="600" fill="#6366f1" text-anchor="middle">sentence-transformers</text>
<rect x="343.6" y="393" width="146" height="22" rx="11" fill="#6366f1" opacity="0.10"/>
<text x="416" y="408" font-size="11.5" font-weight="600" fill="#6366f1" text-anchor="middle">NumPy vector store</text>
<rect x="499.20000000000005" y="393" width="59" height="22" rx="11" fill="#6366f1" opacity="0.10"/>
<text x="529" y="408" font-size="11.5" font-weight="600" fill="#6366f1" text-anchor="middle">Gemini</text>
<rect x="568.4000000000001" y="393" width="81" height="22" rx="11" fill="#6366f1" opacity="0.10"/>
<text x="609" y="408" font-size="11.5" font-weight="600" fill="#6366f1" text-anchor="middle">Streamlit</text>
</svg>